<svg xmlns="http://www.w3.org/2000/svg" viewBox="0 0 421 314">
  <g id="f0899a42-40b6-4691-a582-3d75786ab0d1" data-name="11">
    <polygon points="160.5 244 191.5 184 246.5 184 220.5 214 260.5 213 157.5 306 190.5 244 160.5 244"/>
    <g id="a406805d-7afc-4e67-a9c1-9ec11420576b" data-name="bg">
      <path d="M398.74,157.22c-5.57,0-16.39,0-32.34,0,.2-10.21-2.16-19.5-6.84-26.62A31.55,31.55,0,0,0,332.39,116a41.4,41.4,0,0,0-9.29,1.09c-.72-16.29-6-30.53-15.55-41.52A56.86,56.86,0,0,0,291.88,63a41.63,41.63,0,0,1,25.4-8.81,40,40,0,0,1,30.18,13.93c9.69,11.17,13.56,27.54,10.91,46.08l-1.6,11.16,9.78-5.61c6.58-3.77,12.58-5.68,17.84-5.68a15.6,15.6,0,0,1,13.8,7.34C403.66,129.68,403.81,143.47,398.74,157.22ZM236.94,63.78a88.73,88.73,0,0,0-27.94-29,85.28,85.28,0,0,0-22.41-10.09,74.54,74.54,0,0,1,27.82-5.4c26.84,0,49.87,14.12,62.79,38.13a55.18,55.18,0,0,0-11.92-1.31A57.08,57.08,0,0,0,236.94,63.78Z"/>
      <path d="M214.41,24.83a64,64,0,0,1,51.92,25.83h-1.05a62.06,62.06,0,0,0-26.41,5.94A93.62,93.62,0,0,0,212,30.19a88,88,0,0,0-8-4.56,68.92,68.92,0,0,1,10.46-.8M317.28,59.65a34.51,34.51,0,0,1,26,12c8.62,10,12,24.75,9.61,41.69l-.4,2.77a37.84,37.84,0,0,0-20.13-5.62c-1.41,0-2.84.07-4.28.21-1.71-15-7.28-28.21-16.4-38.74a63.17,63.17,0,0,0-9.53-8.92,35.06,35.06,0,0,1,15.1-3.43m67.11,59.88a10.15,10.15,0,0,1,9.21,4.86c3.2,4.86,5.06,14.59,1.2,27.32l-23,0a50,50,0,0,0-7.61-24.14l-.07-.09,5.19-3c5.66-3.24,10.88-5,15.11-5m-170-105.7a81,81,0,0,0-44.34,13.36,80.37,80.37,0,0,1,36,12.26,84,84,0,0,1,29,32.08,52.47,52.47,0,0,1,30.28-9.88A50.5,50.5,0,0,1,303.4,79.21c10,11.59,15,27.46,14.21,45.37a40.46,40.46,0,0,1,14.78-3A26.2,26.2,0,0,1,355,133.6c5,7.61,6.85,17.92,5.55,29.09,23,0,38.68,0,41.93,0,12-27.8,3.61-54.2-18.06-54.2-5.92,0-12.83,2-20.58,6.41,6-41.85-19.41-66.28-46.53-66.29a47.88,47.88,0,0,0-32.07,12.7c-13.94-31.79-42.08-47.52-70.8-47.52Z"/>
    </g>
    <g id="bbf3ba70-e9ff-4eb3-a984-da5988b6d1d6" data-name="fg">
      <path d="M15.44,185.74s317-.13,333,0c15.27-35.39-2.48-68.52-38.64-47.79,8.44-58.94-45.38-83.34-78.6-53.59C197.78,8.1,82.65,24.24,73.88,128.18,27.09,99.83,6.68,154.68,15.44,185.74Z"/>
    </g>
  </g>
</svg>
