<svg xmlns="http://www.w3.org/2000/svg" viewBox="0 0 415 249">
  <g id="f2d5b774-5936-4d98-babc-2e07795fc11d" data-name="02">
    <g id="afda72e4-4eb7-4a97-a826-8dd3dbbbe12c" data-name="fg">
      <path d="M20.44,231.74s317-.13,333,0c15.27-35.39-2.48-68.52-38.64-47.79,8.44-58.94-45.38-83.34-78.6-53.59C202.78,54.1,87.65,70.24,78.88,174.18,32.09,145.83,11.68,200.68,20.44,231.74Z"/>
    </g>
    <path d="M209.58,86.61a84.69,84.69,0,0,1,28.78,31.46,53.34,53.34,0,0,1,29.92-9.42,51.51,51.51,0,0,1,38.87,17.9c9.93,11.46,14.94,27,14.51,44.57a40.27,40.27,0,0,1,13.73-2.59,27.14,27.14,0,0,1,22,10.51,88.51,88.51,0,1,0-150-93.8C208.1,85.69,208.84,86.14,209.58,86.61Z"/>
  </g>
</svg>
