<svg xmlns="http://www.w3.org/2000/svg" viewBox="0 0 278.54 247.67">
  <g id="a12afa4e-6577-4b85-a992-fdea3f7e8dc6" data-name="snowflake">
    <g id="f5ff337a-83b1-424c-9f7e-8c2df11a1318" data-name="snowflake">
      <polyline points="138 101 138 44.14 138 18" style="fill: none;stroke-linecap: round;stroke-miterlimit: 10;stroke-width: 11px"/>
      <line x1="164.12" y1="27.43" x2="138.12" y2="49.43" style="fill: none;stroke-linecap: round;stroke-miterlimit: 10;stroke-width: 11px"/>
      <line x1="111.89" y1="27.44" x2="137.89" y2="49.44" style="fill: none;stroke-linecap: round;stroke-miterlimit: 10;stroke-width: 11px"/>
      <line x1="164.12" y1="54.44" x2="138.12" y2="76.44" style="fill: none;stroke-linecap: round;stroke-miterlimit: 10;stroke-width: 11px"/>
      <line x1="111.89" y1="54.44" x2="137.89" y2="76.44" style="fill: none;stroke-linecap: round;stroke-miterlimit: 10;stroke-width: 11px"/>
    </g>
    <g id="feb0f85d-2e9f-4ea0-899e-dfb7adab084a" data-name="snowflake">
      <polyline points="160.41 113.82 209.43 85 231.96 71.75" style="fill: none;stroke-linecap: round;stroke-miterlimit: 10;stroke-width: 11px"/>
      <line x1="237.07" y1="99.04" x2="204.93" y2="87.78" style="fill: none;stroke-linecap: round;stroke-miterlimit: 10;stroke-width: 11px"/>
      <line x1="210.58" y1="54.03" x2="204.8" y2="87.59" style="fill: none;stroke-linecap: round;stroke-miterlimit: 10;stroke-width: 11px"/>
      <line x1="213.78" y1="112.74" x2="181.64" y2="101.47" style="fill: none;stroke-linecap: round;stroke-miterlimit: 10;stroke-width: 11px"/>
      <line x1="187.31" y1="67.72" x2="181.52" y2="101.28" style="fill: none;stroke-linecap: round;stroke-miterlimit: 10;stroke-width: 11px"/>
    </g>
    <g id="b5cebd35-92c4-4adc-a4af-d8354f18b17a" data-name="snowflake">
      <polyline points="160.52 139.99 209.78 168.39 232.43 181.45" style="fill: none;stroke-linecap: round;stroke-miterlimit: 10;stroke-width: 11px"/>
      <line x1="211.21" y1="199.36" x2="205.14" y2="165.85" style="fill: none;stroke-linecap: round;stroke-miterlimit: 10;stroke-width: 11px"/>
      <line x1="237.29" y1="154.11" x2="205.24" y2="165.64" style="fill: none;stroke-linecap: round;stroke-miterlimit: 10;stroke-width: 11px"/>
      <line x1="187.81" y1="185.87" x2="181.74" y2="152.35" style="fill: none;stroke-linecap: round;stroke-miterlimit: 10;stroke-width: 11px"/>
      <line x1="213.9" y1="140.62" x2="181.85" y2="152.16" style="fill: none;stroke-linecap: round;stroke-miterlimit: 10;stroke-width: 11px"/>
    </g>
    <g id="b3db1abc-e253-4c38-a72c-584edcbc778a" data-name="snowflake">
      <polyline points="138.02 153 138.05 209.86 138.07 236" style="fill: none;stroke-linecap: round;stroke-miterlimit: 10;stroke-width: 11px"/>
      <line x1="111.95" y1="226.59" x2="137.93" y2="204.57" style="fill: none;stroke-linecap: round;stroke-miterlimit: 10;stroke-width: 11px"/>
      <line x1="164.18" y1="226.54" x2="138.16" y2="204.56" style="fill: none;stroke-linecap: round;stroke-miterlimit: 10;stroke-width: 11px"/>
      <line x1="111.93" y1="199.57" x2="137.92" y2="177.56" style="fill: none;stroke-linecap: round;stroke-miterlimit: 10;stroke-width: 11px"/>
      <line x1="164.16" y1="199.54" x2="138.14" y2="177.56" style="fill: none;stroke-linecap: round;stroke-miterlimit: 10;stroke-width: 11px"/>
    </g>
    <g id="b29fb577-b8c0-4c0a-927b-bd5e92a76ca1" data-name="snowflake">
      <polyline points="115.48 140 66.24 168.42 43.6 181.49" style="fill: none;stroke-linecap: round;stroke-miterlimit: 10;stroke-width: 11px"/>
      <line x1="38.71" y1="154.16" x2="70.76" y2="165.68" style="fill: none;stroke-linecap: round;stroke-miterlimit: 10;stroke-width: 11px"/>
      <line x1="64.83" y1="199.38" x2="70.89" y2="165.87" style="fill: none;stroke-linecap: round;stroke-miterlimit: 10;stroke-width: 11px"/>
      <line x1="62.11" y1="140.65" x2="94.16" y2="152.17" style="fill: none;stroke-linecap: round;stroke-miterlimit: 10;stroke-width: 11px"/>
      <line x1="88.21" y1="185.89" x2="94.27" y2="152.37" style="fill: none;stroke-linecap: round;stroke-miterlimit: 10;stroke-width: 11px"/>
    </g>
    <g id="f2dba02f-5dc1-4e7f-bd0f-e13a468d2ab9" data-name="snowflake">
      <polyline points="115.49 113.98 66.27 85.52 43.64 72.43" style="fill: none;stroke-linecap: round;stroke-miterlimit: 10;stroke-width: 11px"/>
      <line x1="64.88" y1="54.54" x2="70.91" y2="88.06" style="fill: none;stroke-linecap: round;stroke-miterlimit: 10;stroke-width: 11px"/>
      <line x1="38.75" y1="99.76" x2="70.81" y2="88.27" style="fill: none;stroke-linecap: round;stroke-miterlimit: 10;stroke-width: 11px"/>
      <line x1="88.27" y1="68.07" x2="94.29" y2="101.59" style="fill: none;stroke-linecap: round;stroke-miterlimit: 10;stroke-width: 11px"/>
      <line x1="62.12" y1="113.28" x2="94.18" y2="101.79" style="fill: none;stroke-linecap: round;stroke-miterlimit: 10;stroke-width: 11px"/>
    </g>
    <polygon points="115.48 114 138 101 160.52 114 160.52 140 138 153 115.48 140 115.48 114" style="fill: none;stroke-linecap: round;stroke-miterlimit: 10;stroke-width: 11px"/>
  </g>
</svg>
